<?xml version="1.0" encoding="utf-8"?>
<!-- Generator: Adobe Illustrator 25.1.0, SVG Export Plug-In . SVG Version: 6.00 Build 0)  -->
<svg version="1.1" id="Calque_1" xmlns="http://www.w3.org/2000/svg" xmlns:xlink="http://www.w3.org/1999/xlink" x="0px" y="0px"
	 viewBox="0 0 100 100" style="enable-background:new 0 0 100 100;" xml:space="preserve">
<style type="text/css">
	.st0{fill:#FFFFFF;stroke:#1A1A1A;stroke-width:3;stroke-miterlimit:10;}
	.st1{fill:none;stroke:#1A1A1A;stroke-width:3;stroke-linecap:round;stroke-miterlimit:10;}
	.st2{fill:#1A1A1A;}
</style>
<g>
	<circle class="st0" cx="50" cy="50" r="41.7"/>
	<line class="st1" x1="50" y1="8.3" x2="50" y2="18.7"/>
	<line class="st1" x1="50" y1="81.3" x2="50" y2="91.7"/>
	<line class="st1" x1="8.3" y1="50" x2="18.7" y2="50"/>
	<line class="st1" x1="81.3" y1="50" x2="91.7" y2="50"/>
	<line class="st1" x1="20.5" y1="20.5" x2="27.9" y2="27.9"/>
	<line class="st1" x1="72.1" y1="72.1" x2="79.5" y2="79.5"/>
	<line class="st1" x1="20.5" y1="79.5" x2="27.9" y2="72.1"/>
	<line class="st1" x1="72.1" y1="27.9" x2="79.5" y2="20.5"/>
	<g>
		<path class="st2" d="M48.5,50.9L50,28.8l1.5,22.1c0.1,0.8-0.6,1.5-1.4,1.6s-1.5-0.6-1.6-1.4C48.5,51,48.5,50.9,48.5,50.9z"/>
	</g>
	<g>
		<path class="st2" d="M49.2,49.6l27.9-15.3L50.8,52.1c-0.7,0.5-1.6,0.3-2.1-0.4c-0.5-0.7-0.3-1.6,0.4-2.1
			C49.1,49.6,49.2,49.6,49.2,49.6z"/>
	</g>
</g>
</svg>
