<?xml version="1.0" encoding="utf-8"?>
<!-- Generator: Adobe Illustrator 24.3.0, SVG Export Plug-In . SVG Version: 6.00 Build 0)  -->
<svg version="1.1" xmlns="http://www.w3.org/2000/svg" xmlns:xlink="http://www.w3.org/1999/xlink" x="0px" y="0px"
	 viewBox="0 0 100 100" style="enable-background:new 0 0 100 100;" xml:space="preserve">
<style type="text/css">
	.st0{display:none;}
	.st1{display:inline;}
	.st2{fill:#FFFFFF;stroke:#1A1A1A;stroke-width:3;stroke-miterlimit:10;}
	.st3{fill:none;stroke:#1A1A1A;stroke-width:3;stroke-linecap:round;stroke-miterlimit:10;}
	.st4{fill:#1A1A1A;}
	.st5{display:inline;fill:#FFFFFF;}
	.st6{display:inline;fill:#1A1A1A;}
	.st7{display:inline;fill:#FFFFFF;stroke:#1A1A1A;stroke-width:6;stroke-miterlimit:10;}
	.st8{fill:#FFFFFF;}
</style>
<g id="Calque_1" class="st0">
	<g class="st1">
		<circle class="st2" cx="50" cy="49.9" r="41.7"/>
		<line class="st3" x1="50" y1="8.2" x2="50" y2="18.6"/>
		<line class="st3" x1="50" y1="81.2" x2="50" y2="91.6"/>
		<line class="st3" x1="8.3" y1="49.9" x2="18.7" y2="49.9"/>
		<line class="st3" x1="81.3" y1="49.9" x2="91.7" y2="49.9"/>
		<line class="st3" x1="20.5" y1="20.4" x2="27.9" y2="27.8"/>
		<line class="st3" x1="72.1" y1="72" x2="79.5" y2="79.4"/>
		<line class="st3" x1="20.5" y1="79.4" x2="27.9" y2="72"/>
		<line class="st3" x1="72.1" y1="27.8" x2="79.5" y2="20.4"/>
		<g>
			<path class="st4" d="M48.5,50.8L50,28.7l1.5,22.1c0.1,0.8-0.6,1.5-1.4,1.6s-1.5-0.6-1.6-1.4C48.5,50.9,48.5,50.8,48.5,50.8z"/>
		</g>
		<g>
			<path class="st4" d="M49.2,49.5l27.9-15.3L50.8,52c-0.7,0.5-1.6,0.3-2.1-0.4S48.4,50,49.2,49.5C49.1,49.5,49.2,49.5,49.2,49.5z"
				/>
		</g>
	</g>
</g>
<g id="Calque_4" class="st0">
	<circle class="st5" cx="51" cy="49.8" r="37.8"/>
	<path class="st6" d="M51,5.8C26.6,5.8,6.8,25.6,6.8,50S26.6,94.2,51,94.2S95.2,74.4,95.2,50S75.3,5.8,51,5.8z M51,85.3
		c-19.5,0-35.3-15.9-35.3-35.3S31.5,14.7,51,14.7S86.3,30.5,86.3,50S70.5,85.3,51,85.3z"/>
	<path class="st6" d="M55.3,29.9h-8.5V53l14.1,14.1l6-6L55.3,49.5V29.9z"/>
</g>
<g id="Calque_3" class="st0">
	<path class="st7" d="M51.4,11.6c-27.1,0-41.7,19.3-41.7,37.5c0,8.9,4.2,16.6,12.5,23v18.7h12.5V78.3H43v12.5h16.7V78.3h8.3v12.5
		h12.5V72.1c8.3-6.4,12.5-14.1,12.5-23C93.1,30.9,78.5,11.6,51.4,11.6z M34.7,57.5c-4.7,0-8.3-4.6-8.3-10.4s3.7-10.4,8.3-10.4
		c4.7,0,8.3,4.6,8.3,10.4S39.4,57.5,34.7,57.5z M68.1,57.5c-4.7,0-8.3-4.6-8.3-10.4s3.7-10.4,8.3-10.4s8.3,4.6,8.3,10.4
		S72.7,57.5,68.1,57.5z"/>
</g>
<g id="Calque_5">
	<circle class="st8" cx="50.7" cy="50.2" r="37.9"/>
	<path class="st4" d="M50.7,93.9c24.2,0,43.9-19.7,43.9-43.9S74.9,6.1,50.7,6.1S6.8,25.8,6.8,50S26.5,93.9,50.7,93.9z M50.7,14.9
		c19.4,0,35.1,15.8,35.1,35.1S70.1,85.1,50.7,85.1S15.6,69.4,15.6,50S31.3,14.9,50.7,14.9z"/>
	<path class="st4" d="M55.1,32.4v35.1l22-17.6L55.1,32.4z M28.8,32.4v35.1l22-17.6L28.8,32.4z"/>
</g>
</svg>
